<svg id="visual" viewBox="0 0 960 540" width="960" height="540" xmlns="http://www.w3.org/2000/svg" xmlns:xlink="http://www.w3.org/1999/xlink" version="1.1"><path d="M0 22L22.8 22.3C45.7 22.7 91.3 23.3 137 23C182.7 22.7 228.3 21.3 274 21.8C319.7 22.3 365.3 24.7 411.2 27C457 29.3 503 31.7 548.8 30.7C594.7 29.7 640.3 25.3 686 22.3C731.7 19.3 777.3 17.7 823 18.7C868.7 19.7 914.3 23.3 937.2 25.2L960 27L960 0L937.2 0C914.3 0 868.7 0 823 0C777.3 0 731.7 0 686 0C640.3 0 594.7 0 548.8 0C503 0 457 0 411.2 0C365.3 0 319.7 0 274 0C228.3 0 182.7 0 137 0C91.3 0 45.7 0 22.8 0L0 0Z" fill="#363062" stroke-linecap="round" stroke-linejoin="miter"></path></svg>